<svg xmlns="http://www.w3.org/2000/svg" viewBox="0 0 41 40.99"><defs><style>.cls-1{fill:#bdbdbd;}.cls-2{fill:#f2f2f2;}</style></defs><title>Q4_Disabled</title><g id="Layer_2" data-name="Layer 2"><g id="Layer_1-2" data-name="Layer 1"><path class="cls-1" d="M19.32,41a.76.76,0,0,0-.37-.05,18.78,18.78,0,0,1-2.24-.28A16.26,16.26,0,0,1,15,40.25a19.08,19.08,0,0,1-1.94-.63c-.53-.22-1.07-.44-1.59-.69a19.19,19.19,0,0,1-2-1.14,23.75,23.75,0,0,1-2.15-1.58,20.26,20.26,0,0,1-2.06-2,19.19,19.19,0,0,1-1.5-1.87c-.37-.54-.73-1.1-1.06-1.67s-.59-1.1-.86-1.67a18.17,18.17,0,0,1-1-2.63c-.14-.51-.28-1-.39-1.53a22.44,22.44,0,0,1-.42-3,20.2,20.2,0,0,1,.2-4.62,16.77,16.77,0,0,1,.39-1.87,21,21,0,0,1,1.9-4.81A17.79,17.79,0,0,1,3.6,8.9c.34-.5.72-1,1.08-1.45,0,0,.1-.08.07-.14s-.1,0-.15,0H1.84a.92.92,0,0,1-.62-.18A.8.8,0,0,1,1,6.28a.68.68,0,0,1,.66-.48c1.62,0,3.23,0,4.84,0a.83.83,0,0,1,.8.81v3.82c0,.29,0,.59,0,.88a.73.73,0,0,1-.41.72.75.75,0,0,1-1.08-.66c0-.88,0-1.75,0-2.63V8.51a.81.81,0,0,0-.31.3,19.23,19.23,0,0,0-3.23,6.24c-.16.56-.31,1.12-.42,1.69s-.15,1-.22,1.45a18.8,18.8,0,0,0-.12,3.18,18.19,18.19,0,0,0,.23,2.21c.06.43.15.86.25,1.28s.3,1.12.48,1.67A17.82,17.82,0,0,0,3.7,29.41a17.48,17.48,0,0,0,1.48,2.35A18.51,18.51,0,0,0,7.1,34a16.88,16.88,0,0,0,1.4,1.27c.48.39,1,.75,1.5,1.1.31.22.64.4,1,.59a22.12,22.12,0,0,0,2,1,19.26,19.26,0,0,0,2.35.83,15.62,15.62,0,0,0,1.64.39c.76.14,1.53.22,2.3.29a19.27,19.27,0,0,0,2.28,0,20.57,20.57,0,0,0,2.06-.22,16.76,16.76,0,0,0,2.1-.47c.53-.15,1.06-.31,1.57-.51a19.29,19.29,0,0,0,2.31-1.06,18.08,18.08,0,0,0,2.2-1.39.68.68,0,0,1,.81-.09.76.76,0,0,1,.4.74.79.79,0,0,1-.41.59,18,18,0,0,1-1.68,1.11c-.49.27-1,.56-1.49.79s-1,.46-1.54.67-1.05.36-1.58.52-1,.27-1.49.39-.94.17-1.41.24a13,13,0,0,1-1.52.14s-.06,0-.08,0Z"/><path class="cls-2" d="M41,21.58a.24.24,0,0,0-.06.21A15.07,15.07,0,0,1,40.69,24a13.07,13.07,0,0,1-.46,2,17.72,17.72,0,0,1-.81,2.32c-.25.57-.49,1.15-.79,1.69a20.77,20.77,0,0,1-1.26,2.07c-.35.5-.72,1-1.11,1.45,0,0-.09.09-.06.15s.1,0,.15,0h3a.63.63,0,0,1,.67.68.66.66,0,0,1-.67.72H34.48a.73.73,0,0,1-.7-.71c0-1.64,0-3.29,0-4.93a.66.66,0,0,1,.47-.62.75.75,0,0,1,.89.41.59.59,0,0,1,0,.26v2.74a.36.36,0,0,0,0,.2,1.43,1.43,0,0,0,.31-.34c.27-.34.5-.71.76-1.07a16.22,16.22,0,0,0,1.21-2.05,16.17,16.17,0,0,0,1.18-2.93c.15-.49.3-1,.41-1.5.08-.31.13-.62.18-.94s.12-.82.17-1.23a21.13,21.13,0,0,0,.08-2.39,16.32,16.32,0,0,0-.17-2.31c-.07-.47-.15-.95-.25-1.42s-.28-1.07-.44-1.6a18.62,18.62,0,0,0-1.73-3.9A21.93,21.93,0,0,0,35.65,9,17.88,17.88,0,0,0,33,6.12,18.73,18.73,0,0,0,30.33,4.2a19.89,19.89,0,0,0-3.11-1.52,18.14,18.14,0,0,0-1.9-.59A12.6,12.6,0,0,0,24,1.77a17.7,17.7,0,0,0-1.78-.24c-.94-.08-1.88,0-2.82,0a9.19,9.19,0,0,0-1.57.16c-.37.06-.75.1-1.11.18s-1,.23-1.42.36a18,18,0,0,0-3.6,1.43A16.36,16.36,0,0,0,9.49,5a.72.72,0,0,1-1-1,6.93,6.93,0,0,1,1.05-.75,18,18,0,0,1,2.75-1.45A17.83,17.83,0,0,1,14.56.89c.58-.16,1.16-.33,1.75-.45.41-.09.83-.17,1.25-.22L19.29.06a13.55,13.55,0,0,1,2,0c.76.05,1.53.1,2.29.22s1.29.22,1.93.39a20.74,20.74,0,0,1,2.88,1A21,21,0,0,1,31,2.9a23.4,23.4,0,0,1,2,1.34,20.13,20.13,0,0,1,2.09,1.83,18.43,18.43,0,0,1,1.6,1.82,20.2,20.2,0,0,1,2.28,3.64A19.1,19.1,0,0,1,40,14.36a19.25,19.25,0,0,1,.53,2,16.45,16.45,0,0,1,.29,2c0,.32.06.65.07,1a.22.22,0,0,0,.06.15C41,20.16,41,20.87,41,21.58Z"/><path class="cls-1" d="M31.06,20.5V33.21a.71.71,0,0,1-.71.72,2,2,0,0,1-.35,0H10.83a.79.79,0,0,1-.83-.48.75.75,0,0,1,0-.33V13.31a.73.73,0,0,1,.25-.59c.38-.37.76-.75,1.13-1.13l2.75-2.75c.48-.48,1-.94,1.43-1.45a1,1,0,0,1,.81-.33H30.19c.6,0,.87.27.87.87Zm-1.37,0V9a2.44,2.44,0,0,0,0-.27c0-.25,0-.25-.28-.25H17.11c-.27,0-.27,0-.27.27V13a1.17,1.17,0,0,1-.07.46.7.7,0,0,1-.7.44H11.59c-.15,0-.24,0-.24.2s0,.46,0,.68V31.64c0,.24,0,.48,0,.72s.05.16.16.16h18c.12,0,.19,0,.18-.16s0-.24,0-.36Zm-17.27-8h2.83c.16,0,.18-.08.18-.21V9.64s0-.09,0-.13Z"/><path class="cls-1" d="M17.05,24.42V31c0,.27,0,.31-.31.31H13.18c-.26,0-.3,0-.3-.3V17.85c0-.25,0-.27.28-.27h3.62c.26,0,.27,0,.27.27Z"/><path class="cls-1" d="M24,25.77v-5.2c0-.28,0-.3.29-.3h3.6c.25,0,.28,0,.28.29V31c0,.25,0,.3-.3.3H24.26c-.25,0-.29,0-.29-.3Z"/><path class="cls-1" d="M22.6,28v3c0,.28,0,.31-.31.31H18.73c-.27,0-.31,0-.31-.3V25c0-.27,0-.28.3-.28.86,0,1.73,0,2.59,0h1.1c.15,0,.18.08.18.2s0,.5,0,.74C22.6,26.46,22.6,27.24,22.6,28Z"/><path class="cls-1" d="M23.42,16.58H19.05a.81.81,0,0,0-.22,0c-.16.06-.19,0-.2-.15v-1a.21.21,0,0,1,.23-.22h8.83c.36,0,.39,0,.39.39v.68c0,.29,0,.3-.29.3H23.42Z"/><path class="cls-1" d="M23.34,14H19c-.33,0-.33,0-.33-.33v-.78c0-.23,0-.27.27-.27h8.83c.3,0,.33,0,.33.33v.72c0,.29,0,.33-.32.33Z"/><path class="cls-1" d="M21,11.39H19c-.29,0-.32,0-.32-.32v-.88c0-.19,0-.21.22-.18h4c.15,0,.29,0,.44,0s.11,0,.11.08v1.19c0,.14-.1.13-.19.13H21Z"/></g></g></svg>