<svg xmlns="http://www.w3.org/2000/svg" viewBox="0 0 40 40"><defs><style>.cls-1,.cls-2{fill:#fff;}.cls-2{stroke:#fff;}.cls-2,.cls-3{stroke-width:0.5px;}.cls-3{fill:#ffcb09;stroke:#ffcb09;}.cls-4{fill:none;}</style></defs><title>Q2_Dark</title><g id="Layer_2" data-name="Layer 2"><g id="Layer_1-2" data-name="Layer 1"><path class="cls-1" d="M22.34,15.89a3.66,3.66,0,0,0,.94,2.53A1,1,0,0,0,25,18.23a3.75,3.75,0,0,0,.53-2.57,3.55,3.55,0,0,0-.85-2.16,1.07,1.07,0,0,0-1.83.19A3.93,3.93,0,0,0,22.34,15.89Zm-5.91,2.35a5,5,0,0,0,.68-1.57,3.85,3.85,0,0,0-.39-3,1.08,1.08,0,0,0-1.94-.07A4.12,4.12,0,0,0,14,15.87a4,4,0,0,0,.51,2.28A1.07,1.07,0,0,0,16.43,18.24Zm6.83.72A4.17,4.17,0,0,1,22,16a3.67,3.67,0,0,1,.91-2.95c-.81-.14-1.35.65-1.63,2.41H20.23V13c.37,0,.8,0,.8-.48s-.42-.47-.78-.47v-.71h1c.34,0,.59-.09.59-.47s-.25-.45-.56-.44h-1V9.73c.33-.07.8,0,.75-.55s-.44-.35-.78-.42c0-.31,0-.62,0-.93,0-.47-.15-.71-.46-.68s-.46.32-.44.65,0,.63,0,.94c-.34.11-.82-.07-.82.48s.45.45.82.5c0,.15,0,.29,0,.43s-.08.3-.29.29h-.83c-.3,0-.53.08-.53.43s.23.47.55.47h1.06V12c-.27.13-.81-.1-.78.51s.48.36.82.46V15.5h-1c-.19-1-.3-2.15-1.59-2.47a4,4,0,0,1,.84,3,4,4,0,0,1-1.26,2.89c.26-.06.53-.12.87-.18q-1.32,7.17-2.64,14.38l-.17,1.26,1.5-.88c.68-.54,1.34-1.05,2-1.57s1.29-1,2-1.57l3.88,3.1.69.61h0l.68.36V33.15c-.88-4.83-1.76-9.62-2.64-14.4Zm-1.86-.58c.14.75.26,1.42.38,2.08l-.09.05L20.41,19.3Zm.22,3.48-1.86,1.58-1.94-1.65,2-1.94Zm-3.15-5.28c0-.07.26-.14.41-.14.58,0,1.16,0,1.75,0,.14,0,.41.06.42.13a1.37,1.37,0,0,1,0,.85,14.71,14.71,0,0,1-1.18,1.36,14.92,14.92,0,0,1-1.38-1.35C18.35,17.24,18.43,16.86,18.47,16.58Zm-.36,1.85.8,1-1.06,1.12-.1-.06C17.87,19.81,18,19.14,18.11,18.43Zm-.75,4.16L19.06,24l-2.34,2C16.94,24.85,17.14,23.76,17.36,22.59Zm-1.84,10,.9-4.91L19,29.8ZM17,27l2.77-2.38L22.54,27l-2.77,2.22Zm7,5.6c-1.21-1-2.34-1.88-3.52-2.81l2.62-2.1C23.41,29.35,23.7,30.94,24,32.62ZM22.8,26.05l-2.34-2,1.71-1.46Z"/><path class="cls-2" d="M36.06,9.17,36.24,9l-.18-.18-.73-.73-.18-.18L35,8.08,33.42,9.63,31.87,8.08l-.18-.18-.18.18-.73.73L30.6,9l.18.18,1.55,1.55L30.84,12.2l-.17.18.17.18.74.74.18.17.18-.17,1.48-1.49L34.9,13.3l.18.17.18-.17.74-.74.17-.18L36,12.2l-1.49-1.48Z"/><path class="cls-3" d="M35.33,15.58l-.23.08.07.23A16.1,16.1,0,1,1,19.79,4.54a16,16,0,0,1,8.83,2.65l.1.06.11,0,1.36-.47.46-.15-.39-.29a17.75,17.75,0,1,0,7.28,14.34,17.91,17.91,0,0,0-.8-5.28l-.07-.24-.25.08Z"/><rect class="cls-4" width="40" height="40"/></g></g></svg>