<svg xmlns="http://www.w3.org/2000/svg" viewBox="0 0 40 41.8"><defs><style>.cls-1{fill:none;}.cls-2{fill:#ffcb09;}.cls-3{fill:#e0e0e0;}</style></defs><title>Q5_Dark</title><g id="Layer_2" data-name="Layer 2"><g id="Layer_1-2" data-name="Layer 1"><g id="Layer_1-2-2" data-name="Layer 1-2"><rect class="cls-1" width="40" height="41.8"/><path class="cls-2" d="M32,2.71H9.67V35.26H32Z"/><path d="M16.52,13.41c.48,0,.72.6.72,1.92a3.94,3.94,0,0,1-.12,1.08c0,.48-.12.84-.12,1.08H15.79v1.44h1.09a45.08,45.08,0,0,0,.24,4.93c.36,2.28,1.2,3.48,2.52,3.48a7.83,7.83,0,0,0,4.8-1.44,5.15,5.15,0,0,0,1.8-4.08,4,4,0,0,0-.61-2.17,2.16,2.16,0,0,0-1.92-1.08,2.56,2.56,0,0,0-1.56.6,1.65,1.65,0,0,0-.6,1.45,1.41,1.41,0,0,0,.69,1.32,2.29,2.29,0,0,0,1.44.48,3.8,3.8,0,0,1-.84,2,3.72,3.72,0,0,1-2.52.84c-1,0-1.56-.84-1.92-2.52A29.06,29.06,0,0,1,18.28,19h1.56v-1.4H18.32c.12-1.56.12-2.4.12-2.52,0-2.28-.72-3.36-2-3.36a3.44,3.44,0,0,0-1.09.24c-.36.24-.6.48-.6.72A2.59,2.59,0,0,0,15.24,14C15.92,13.53,16.16,13.41,16.52,13.41Z"/><path class="cls-3" d="M10.15,1.15A2.64,2.64,0,0,0,7.51,3.67v35a2.56,2.56,0,0,0,2.6,2.52H31.05a2.64,2.64,0,0,0,2.64-2.52V3.79a2.56,2.56,0,0,0-2.6-2.52H10.15Zm16.1,38.56H15.31V36.83H26.25Zm4.32-4.45H10.63v-31H30.57Z"/></g></g></g></svg>