<svg xmlns="http://www.w3.org/2000/svg" viewBox="0 0 40 41.8"><defs><style>.cls-1{fill:#f2f2f2;}.cls-2{fill:#bdbdbd;}.cls-3{fill:none;}</style></defs><title>Q5_Disabled</title><g id="Layer_2" data-name="Layer 2"><g id="Layer_1-2" data-name="Layer 1"><path class="cls-1" d="M31.17,2.31H8.83v32.5H31.17Z"/><path class="cls-2" d="M15.36,14.19c.49,0,.73.64.73,1.9q0,.35-.06,1.08c0,.49-.07.86-.07,1.09H14.79V19.7h1.08a34.23,34.23,0,0,0,.25,5c.39,2.28,1.22,3.43,2.47,3.43a8,8,0,0,0,4.82-1.47,5.12,5.12,0,0,0,1.81-4.1,4.07,4.07,0,0,0-.56-2.2,2.1,2.1,0,0,0-1.86-1.07,2.29,2.29,0,0,0-1.5.54,1.71,1.71,0,0,0-.66,1.42,1.56,1.56,0,0,0,.74,1.37,2.42,2.42,0,0,0,1.47.45,3.44,3.44,0,0,1-.84,2,4,4,0,0,1-2.51.83c-1,0-1.61-.83-1.86-2.49a30.8,30.8,0,0,1-.13-3.71h1.61V18.26H17.57c.08-1.61.12-2.44.12-2.48,0-2.24-.7-3.37-2.08-3.37a2.82,2.82,0,0,0-1,.2q-.63.27-.63.72a3,3,0,0,0,.45,1.32A1.6,1.6,0,0,1,15.36,14.19Z"/><path class="cls-2" d="M9.24.8A2.61,2.61,0,0,0,6.59,3.35v34.9A2.61,2.61,0,0,0,9.24,40.8H30.07a2.61,2.61,0,0,0,2.65-2.55V3.35A2.61,2.61,0,0,0,30.07.8ZM25.32,39.26h-11V36.43h11Zm4.32-4.46H9.71V3.9H29.65V34.8Z"/><g id="Layer_1-2-2" data-name="Layer 1-2"><g id="Layer_1-2-2-2" data-name="Layer 1-2-2"><rect class="cls-3" width="40" height="41.8"/></g></g></g></g></svg>