<svg xmlns="http://www.w3.org/2000/svg" viewBox="0 0 40 40"><defs><style>.cls-1,.cls-2{fill:#fff;}.cls-1{stroke:#e0e0e0;}.cls-2,.cls-3{stroke:#231f20;stroke-width:0.5px;}.cls-3{fill:#231f20;}.cls-4{fill:none;}</style></defs><title>Q3_Dark</title><g id="Layer_2" data-name="Layer 2"><g id="Layer_1-2" data-name="Layer 1"><path class="cls-1" d="M19.42,38.26a9.66,9.66,0,0,1-9.65-9.65V16A2.19,2.19,0,0,1,12,13.84H26.89A2.19,2.19,0,0,1,29.08,16V28.61A9.71,9.71,0,0,1,28,33l-.21.4c-.08.14-.17.28-.26.41a2.7,2.7,0,0,1-.22.33A9.65,9.65,0,0,1,19.42,38.26ZM12,14.28A1.75,1.75,0,0,0,10.21,16V28.61A9.21,9.21,0,0,0,27,33.88l.22-.32.24-.4.2-.37a9.33,9.33,0,0,0,1-4.19V16a1.75,1.75,0,0,0-1.75-1.75Z"/><path class="cls-1" d="M19.42,38.37a9.77,9.77,0,0,1-9.76-9.76V16a2.3,2.3,0,0,1,2.3-2.3H26.89a2.3,2.3,0,0,1,2.3,2.3V28.61A9.79,9.79,0,0,1,28.13,33c-.07.14-.14.27-.22.4l-.25.43-.23.33A9.77,9.77,0,0,1,19.42,38.37ZM12,14A2.08,2.08,0,0,0,9.88,16V28.61a9.54,9.54,0,0,0,17.37,5.45,3.62,3.62,0,0,0,.22-.32l.25-.41c.07-.13.15-.26.21-.39a9.56,9.56,0,0,0,1-4.33V16A2.08,2.08,0,0,0,26.89,14Zm7.46,24a9.33,9.33,0,0,1-9.32-9.32V16A1.86,1.86,0,0,1,12,14.17H26.89A1.86,1.86,0,0,1,28.75,16V28.61a9.38,9.38,0,0,1-1,4.23l-.21.38-.24.4a3.62,3.62,0,0,1-.22.32A9.32,9.32,0,0,1,19.42,37.93ZM12,14.39A1.63,1.63,0,0,0,10.32,16V28.61a9.1,9.1,0,0,0,16.57,5.2,2.11,2.11,0,0,0,.21-.31,4.11,4.11,0,0,0,.24-.39l.2-.37a9.11,9.11,0,0,0,1-4.13V16a1.63,1.63,0,0,0-1.64-1.64Z"/><path class="cls-1" d="M29.54,34.58a8.39,8.39,0,0,1-2.44-.37l-.29-.09.18-.25.21-.31.24-.4.2-.37a9.33,9.33,0,0,0,1-4.19V16a1.75,1.75,0,0,0-1.75-1.75v-.44h9a1.89,1.89,0,0,1,1.88,1.89V26.37a8,8,0,0,1-.89,3.72l-.18.34-.22.36A8.17,8.17,0,0,1,29.54,34.58Zm-2-.71a7.77,7.77,0,0,0,8.58-3.32c.06-.1.13-.2.2-.34l.18-.31a7.87,7.87,0,0,0,.84-3.53V15.73a1.45,1.45,0,0,0-1.45-1.45H28.2A2.19,2.19,0,0,1,29.08,16V28.61A9.71,9.71,0,0,1,28,33l-.21.4c-.08.14-.17.28-.26.41A.22.22,0,0,1,27.51,33.87Z"/><path class="cls-1" d="M29.54,34.69a8.27,8.27,0,0,1-2.47-.38l-.44-.13.27-.37a3.28,3.28,0,0,0,.2-.31,4.11,4.11,0,0,0,.24-.39l.2-.37a9.11,9.11,0,0,0,1-4.13V16a1.63,1.63,0,0,0-1.64-1.64h-.11v-.66h9.08a2,2,0,0,1,2,2V26.37a8.21,8.21,0,0,1-.9,3.77l-.18.34-.22.37A8.3,8.3,0,0,1,29.54,34.69ZM27,34.06l.14,0a8.19,8.19,0,0,0,2.41.37,8,8,0,0,0,6.82-3.74c.07-.1.14-.22.22-.36l.18-.33a8.07,8.07,0,0,0,.88-3.67V15.73A1.78,1.78,0,0,0,35.86,14H27v.22A1.86,1.86,0,0,1,28.75,16V28.61a9.38,9.38,0,0,1-1,4.23l-.21.38-.24.4a3.62,3.62,0,0,1-.22.32Zm2.55.19A7.85,7.85,0,0,1,27.49,34l-.15,0,.13-.2.25-.41c.07-.13.15-.26.21-.39a9.56,9.56,0,0,0,1-4.33V16a2.06,2.06,0,0,0-.83-1.66l-.26-.2h8a1.56,1.56,0,0,1,1.56,1.56V26.37a7.74,7.74,0,0,1-.86,3.57c-.05.11-.11.22-.17.33l-.21.34A7.85,7.85,0,0,1,29.54,34.25Zm-1.85-.44a8.21,8.21,0,0,0,1.85.22A7.63,7.63,0,0,0,36,30.49l.2-.33.17-.32a7.58,7.58,0,0,0,.83-3.47V15.73a1.34,1.34,0,0,0-1.34-1.34H28.5A2.27,2.27,0,0,1,29.19,16V28.61A9.79,9.79,0,0,1,28.13,33c-.07.14-.14.27-.22.4Z"/><path class="cls-1" d="M19.42,11.83A4.68,4.68,0,1,1,24.1,7.16,4.68,4.68,0,0,1,19.42,11.83Zm0-8.9a4.23,4.23,0,1,0,4.23,4.23A4.24,4.24,0,0,0,19.42,2.93Z"/><path class="cls-1" d="M19.42,11.94a4.79,4.79,0,1,1,4.79-4.78A4.78,4.78,0,0,1,19.42,11.94Zm0-9.35A4.57,4.57,0,1,0,24,7.16,4.58,4.58,0,0,0,19.42,2.59Zm0,8.9a4.33,4.33,0,1,1,4.33-4.33A4.34,4.34,0,0,1,19.42,11.49Zm0-8.45a4.12,4.12,0,1,0,4.12,4.12A4.12,4.12,0,0,0,19.42,3Z"/><path class="cls-1" d="M32.05,11.82a3.67,3.67,0,1,1,3.67-3.67A3.67,3.67,0,0,1,32.05,11.82Zm0-6.88a3.21,3.21,0,1,0,3.22,3.21A3.21,3.21,0,0,0,32.05,4.94Z"/><path class="cls-1" d="M32.05,11.93a3.78,3.78,0,1,1,3.78-3.78A3.79,3.79,0,0,1,32.05,11.93Zm0-7.34a3.56,3.56,0,1,0,3.57,3.56A3.57,3.57,0,0,0,32.05,4.59Zm0,6.88a3.32,3.32,0,1,1,3.33-3.32A3.32,3.32,0,0,1,32.05,11.47Zm0-6.42a3.1,3.1,0,1,0,3.11,3.1A3.1,3.1,0,0,0,32.05,5.05Z"/><path class="cls-2" d="M18.11,27.08H3.52a.78.78,0,0,1-.78-.79V11.71a.79.79,0,0,1,.78-.79H18.11a.79.79,0,0,1,.78.79V26.29A.78.78,0,0,1,18.11,27.08Z"/><path class="cls-3" d="M18.11,27.35H3.52a1.05,1.05,0,0,1-1-1.06V11.71a1.06,1.06,0,0,1,1-1.06H18.11a1.06,1.06,0,0,1,1.05,1.06V26.29A1.05,1.05,0,0,1,18.11,27.35ZM3.52,11.2a.51.51,0,0,0-.51.51V26.29a.51.51,0,0,0,.51.52H18.11a.51.51,0,0,0,.51-.52V11.71a.51.51,0,0,0-.51-.51Z"/><path class="cls-3" d="M14.77,16.77l-1.63.07,3.43-2.44L15.79,18Z"/><path class="cls-3" d="M15.94,18.62l-1.29-1.57-2.41.09L17,13.77Zm-1-2.12.74.9L16.15,15,14,16.53Z"/><path class="cls-3" d="M6.25,22.35A10.33,10.33,0,0,1,5,22.28l.06-.54c7,.82,10.1-5.93,10.13-6l.49.22C15.68,16,12.75,22.35,6.25,22.35Z"/><path class="cls-3" d="M14.07,18.3h-.55v5.31h.55Z"/><path class="cls-3" d="M11.8,20.54h-.55v3.07h.55Z"/><path class="cls-3" d="M9.06,21.58H8.52v2h.54Z"/><path class="cls-3" d="M6.91,22H6.36v1.57h.55Z"/><rect class="cls-4" width="40" height="40"/></g></g></svg>