<svg xmlns="http://www.w3.org/2000/svg" viewBox="0 0 40.31 41.8"><defs><style>.cls-1{fill:#bdbdbd;}.cls-2{fill:#fff;}.cls-3{fill:none;}</style></defs><title>Q3_Disabled</title><g id="Layer_2" data-name="Layer 2"><g id="Layer_1-2" data-name="Layer 1"><path class="cls-1" d="M19.17,40.46A10.92,10.92,0,0,1,8.26,29.55V15.33a2.48,2.48,0,0,1,2.47-2.47H27.61a2.48,2.48,0,0,1,2.47,2.47V29.55a10.88,10.88,0,0,1-1.19,4.95,3.75,3.75,0,0,1-.24.44c-.09.16-.18.32-.28.47l-.25.38A10.94,10.94,0,0,1,19.17,40.46Zm-8.44-27.1a2,2,0,0,0-2,2V29.55a10.42,10.42,0,0,0,19,6,3.75,3.75,0,0,0,.24-.36c.1-.15.19-.3.28-.45s.15-.28.22-.43a10.3,10.3,0,0,0,1.14-4.72V15.33a2,2,0,0,0-2-2Z"/><path class="cls-1" d="M19.17,40.58a11,11,0,0,1-11-11V15.33a2.59,2.59,0,0,1,2.59-2.59H27.61a2.59,2.59,0,0,1,2.59,2.59V29.55a11,11,0,0,1-1.2,5,4.92,4.92,0,0,1-.24.45c-.09.16-.19.32-.29.47s-.16.26-.25.38A11,11,0,0,1,19.17,40.58ZM10.73,13a2.35,2.35,0,0,0-2.35,2.34V29.55A10.79,10.79,0,0,0,28,35.72c.08-.12.17-.24.25-.37l.28-.47.24-.44A10.87,10.87,0,0,0,30,29.55V15.33A2.35,2.35,0,0,0,27.61,13Zm8.44,27.1A10.55,10.55,0,0,1,8.63,29.55V15.33a2.1,2.1,0,0,1,2.1-2.1H27.61a2.1,2.1,0,0,1,2.1,2.1V29.55a10.53,10.53,0,0,1-1.15,4.78c-.07.15-.15.29-.23.43s-.18.31-.28.46a3.75,3.75,0,0,1-.24.36A10.55,10.55,0,0,1,19.17,40.09ZM10.73,13.48a1.85,1.85,0,0,0-1.85,1.85V29.55a10.29,10.29,0,0,0,18.73,5.88l.24-.35.27-.44c.08-.14.15-.28.22-.42a10.33,10.33,0,0,0,1.12-4.67V15.33a1.85,1.85,0,0,0-1.85-1.85Z"/><path class="cls-1" d="M30.6,36.3a9.29,9.29,0,0,1-2.76-.42l-.32-.1.2-.28c.08-.11.16-.23.23-.35s.19-.3.27-.45.16-.28.23-.43a10.42,10.42,0,0,0,1.13-4.72V15.33a2,2,0,0,0-2-2v-.5H37.75A2.14,2.14,0,0,1,39.88,15V27a9.16,9.16,0,0,1-1,4.2l-.21.38a4.21,4.21,0,0,1-.24.4A9.23,9.23,0,0,1,30.6,36.3Zm-2.29-.8a8.89,8.89,0,0,0,2.29.3A8.74,8.74,0,0,0,38,31.74c.07-.1.14-.22.23-.37l.19-.36a8.77,8.77,0,0,0,1-4V15a1.63,1.63,0,0,0-1.63-1.63H29.09a2.47,2.47,0,0,1,1,2V29.55a10.88,10.88,0,0,1-1.19,4.95,3.75,3.75,0,0,1-.24.44c-.09.16-.18.32-.28.47A.7.7,0,0,1,28.31,35.5Z"/><path class="cls-1" d="M30.6,36.42A9.43,9.43,0,0,1,27.81,36l-.49-.15.3-.42c.08-.11.15-.23.23-.35l.27-.44c.08-.14.15-.28.22-.42a10.33,10.33,0,0,0,1.12-4.67V15.33a1.85,1.85,0,0,0-1.85-1.85h-.12v-.74H37.75A2.25,2.25,0,0,1,40,15V27a9.29,9.29,0,0,1-1,4.26l-.21.38a4.67,4.67,0,0,1-.25.42A9.36,9.36,0,0,1,30.6,36.42Zm-2.88-.7.16.05a9.28,9.28,0,0,0,2.72.4A9.09,9.09,0,0,0,38.31,32c.08-.12.16-.24.25-.4l.2-.38a9,9,0,0,0,1-4.15V15a2,2,0,0,0-2-2h-10v.25a2.1,2.1,0,0,1,2,2.09V29.55a10.53,10.53,0,0,1-1.15,4.78c-.07.15-.15.29-.23.43s-.18.31-.28.46a3.75,3.75,0,0,1-.24.36Zm2.88.21a9.13,9.13,0,0,1-2.32-.31l-.16,0,.15-.23.28-.47.24-.44A10.87,10.87,0,0,0,30,29.55V15.33A2.34,2.34,0,0,0,29,13.46l-.3-.23h9A1.76,1.76,0,0,1,39.51,15V27a8.84,8.84,0,0,1-1,4l-.2.37c-.08.15-.16.27-.23.38A8.87,8.87,0,0,1,30.6,35.93Zm-2.09-.5a8.7,8.7,0,0,0,9.39-3.75c.07-.11.15-.23.23-.37s.13-.24.19-.36A8.46,8.46,0,0,0,39.26,27V15a1.52,1.52,0,0,0-1.51-1.51H29.43a2.55,2.55,0,0,1,.77,1.85V29.55a11.13,11.13,0,0,1-1.19,5l-.24.45C28.68,35.15,28.59,35.29,28.51,35.43Z"/><path class="cls-1" d="M19.17,11.72a5.29,5.29,0,1,1,5.29-5.29A5.29,5.29,0,0,1,19.17,11.72Zm0-10.06a4.78,4.78,0,1,0,4.77,4.77A4.78,4.78,0,0,0,19.17,1.66Z"/><path class="cls-1" d="M19.17,11.85a5.42,5.42,0,1,1,5.41-5.42A5.42,5.42,0,0,1,19.17,11.85Zm0-10.58a5.17,5.17,0,1,0,5.17,5.16A5.17,5.17,0,0,0,19.17,1.27Zm0,10.06a4.9,4.9,0,1,1,4.89-4.9A4.9,4.9,0,0,1,19.17,11.33Zm0-9.54a4.65,4.65,0,1,0,4.65,4.64A4.65,4.65,0,0,0,19.17,1.79Z"/><path class="cls-1" d="M33.44,11.71a4.15,4.15,0,1,1,4.15-4.15A4.15,4.15,0,0,1,33.44,11.71Zm0-7.78a3.63,3.63,0,1,0,3.64,3.63A3.64,3.64,0,0,0,33.44,3.93Z"/><path class="cls-1" d="M33.45,11.83a4.27,4.27,0,1,1,4.27-4.27A4.28,4.28,0,0,1,33.45,11.83Zm0-8.3a4,4,0,1,0,4,4A4,4,0,0,0,33.45,3.53Zm0,7.78A3.75,3.75,0,1,1,37.2,7.56,3.75,3.75,0,0,1,33.45,11.31Zm0-7.26A3.51,3.51,0,1,0,37,7.56,3.51,3.51,0,0,0,33.45,4.05Z"/><path class="cls-2" d="M17.68,27.83H1.2a.89.89,0,0,1-.89-.89V10.45a.89.89,0,0,1,.89-.89H17.68a.89.89,0,0,1,.89.89V26.94A.89.89,0,0,1,17.68,27.83Z"/><path class="cls-1" d="M17.68,28.13H1.2A1.19,1.19,0,0,1,0,26.94V10.45A1.19,1.19,0,0,1,1.2,9.26H17.68a1.19,1.19,0,0,1,1.2,1.19V26.94A1.19,1.19,0,0,1,17.68,28.13ZM1.2,9.87a.58.58,0,0,0-.58.58V26.94a.58.58,0,0,0,.58.58H17.68a.58.58,0,0,0,.58-.58V10.45a.58.58,0,0,0-.58-.58Z"/><path class="cls-1" d="M13.91,16.18l-1.84.07,3.87-2.76-.88,4.09Z"/><path class="cls-1" d="M15.23,18.26l-1.46-1.77L11,16.6l5.37-3.82Zm-1.18-2.4.84,1,.58-2.68-2.38,1.7Z"/><path class="cls-1" d="M4.28,22.48A11.07,11.07,0,0,1,2.9,22.4L3,21.79c7.85.92,11.41-6.7,11.44-6.78l.57.26C14.94,15.34,11.62,22.48,4.28,22.48Z"/><path class="cls-1" d="M13.12,17.9H12.5v6h.62Z"/><path class="cls-1" d="M10.55,20.44H9.93V23.9h.62Z"/><path class="cls-1" d="M7.46,21.61H6.84V23.9h.62Z"/><path class="cls-1" d="M5,22.13H4.41V23.9H5Z"/><rect class="cls-3" x="0.31" width="40" height="41.8"/></g></g></svg>