<svg xmlns="http://www.w3.org/2000/svg" viewBox="0 0 40 40.26"><defs><style>.cls-1{fill:none;}.cls-2{fill:#ffcb09;}.cls-2,.cls-3{fill-rule:evenodd;}.cls-3,.cls-4{fill:#fff;}</style></defs><title>Q6_Dark_1</title><g id="Layer_2" data-name="Layer 2"><g id="Layer_1-2" data-name="Layer 1"><rect class="cls-1" y="0.26" width="40" height="40"/><path class="cls-2" d="M24.49,14.64,8.63,14.39v-.7L24.5,14Z"/><path class="cls-2" d="M21.17,20l-10.31-.25v-.7l10.32.26Z"/><path class="cls-3" d="M7.87.69a1.67,1.67,0,0,0-1.6,1.74V37.57a1.67,1.67,0,0,0,1.6,1.74H33.39A1.68,1.68,0,0,0,35,37.57V2.43A1.68,1.68,0,0,0,33.39.69ZM5.63,2.43A2.34,2.34,0,0,1,7.87,0H33.39a2.35,2.35,0,0,1,2.24,2.43V37.57A2.35,2.35,0,0,1,33.39,40H7.87a2.34,2.34,0,0,1-2.24-2.43Z"/><path class="cls-4" d="M19.77,36.37c-.55,0-1-.55-1.22-.89a.59.59,0,0,0-.48-.25.66.66,0,0,0-.53.24l-.05.06a1.25,1.25,0,0,1-1,.43,1.27,1.27,0,0,1-.95-.54,1.08,1.08,0,0,0-.69-.47.6.6,0,0,0-.57.24,2.29,2.29,0,0,1-3.12.59.86.86,0,0,1-.11-1.22,20.31,20.31,0,0,0,2.44-4.44.75.75,0,0,0,0-.53c-.3-.66-.64-1-1-1h0c-.94,0-2.1,2-2.43,2.7L9.44,31c.15-.31,1.5-3.07,3-3.07h0c.63,0,1.16.46,1.58,1.37a1.54,1.54,0,0,1,.07,1.06A20.88,20.88,0,0,1,11.55,35c-.09.11-.08.17,0,.26a1.7,1.7,0,0,0,2.22-.51A1.2,1.2,0,0,1,15,34.27a1.76,1.76,0,0,1,1.09.72.63.63,0,0,0,.48.27.64.64,0,0,0,.5-.21l0,0a1.27,1.27,0,0,1,1-.47,1.24,1.24,0,0,1,1,.51c.31.41.54.65.76.63s.68-.33,1.44-2.05l.58.3c-.71,1.61-1.31,2.36-1.94,2.43Z"/><path class="cls-4" d="M31,9.6h0L32.51,6.5,30.89,5.34,28.77,8.8c-6.3,6.85-9.2,12.94-10.52,16.84a22,22,0,0,0-1.38,7v.3l.28,0c1-.17,4.36-3.85,5-4.58,4.93-5,8.06-16.18,8.59-18.18h0c.69.3,1.47.83,1.47,1.08,0,.93-2.9,8.27-3.62,8.92l.32.41c.82-.76,3.74-8.24,3.79-9.32C32.75,10.43,31.39,9.78,31,9.6ZM31,6.07l.84.6L30.5,9.39l-1.18-.55ZM17.72,29.47l1.56,1.07a13.91,13.91,0,0,1-1.91,1.65A19.25,19.25,0,0,1,17.72,29.47Zm4.12-1.59c-.61.68-1.41,1.52-2.18,2.29l-1.82-1.25a30,30,0,0,1,.88-3.13c.33-1,.75-2.06,1.3-3.27l1.34.77.23-.47-1.35-.77c.13-.27.26-.55.4-.83l.82.59.27-.44-.85-.61A52.39,52.39,0,0,1,29,9.28l1.3.59C29.86,11.61,26.68,23,21.84,27.88Z"/></g></g></svg>