<svg xmlns="http://www.w3.org/2000/svg" viewBox="0 0 41.09 40"><defs><style>.cls-1{fill:#fff;}.cls-2{fill:none;}</style></defs><title>Q1_Dark</title><g id="Layer_2" data-name="Layer 2"><g id="Layer_1-2" data-name="Layer 1"><path class="cls-1" d="M9.66,37.12a2.24,2.24,0,0,1-2.24-2.24V25.77a2.25,2.25,0,0,1,4.49,0v9.11A2.24,2.24,0,0,1,9.66,37.12Z"/><path class="cls-1" d="M9.66,37.32a2.44,2.44,0,0,1-2.44-2.44V25.77a2.45,2.45,0,0,1,4.89,0v9.11A2.45,2.45,0,0,1,9.66,37.32Zm0-13.6a2,2,0,0,0-2,2v9.12a2,2,0,1,0,4.08,0V25.76A2,2,0,0,0,9.66,23.72Z"/><path class="cls-1" d="M17,37a2.24,2.24,0,0,1-2.24-2.25V18.07a2.24,2.24,0,1,1,4.48,0V34.73A2.24,2.24,0,0,1,17,37Z"/><path class="cls-1" d="M17,37.18a2.45,2.45,0,0,1-2.44-2.45V18.07a2.44,2.44,0,1,1,4.88,0V34.73A2.45,2.45,0,0,1,17,37.18ZM17,16a2,2,0,0,0-2,2V34.73a2,2,0,0,0,4.08,0V18.07A2,2,0,0,0,17,16Z"/><path class="cls-1" d="M24.26,37.05A2.24,2.24,0,0,1,22,34.81V21.51a2.24,2.24,0,1,1,4.48,0v13.3A2.24,2.24,0,0,1,24.26,37.05Z"/><path class="cls-1" d="M24.26,37.25a2.44,2.44,0,0,1-2.44-2.44V21.51a2.44,2.44,0,1,1,4.88,0v13.3A2.44,2.44,0,0,1,24.26,37.25Zm0-17.79a2,2,0,0,0-2,2.05v13.3a2,2,0,1,0,4.08,0V21.51A2,2,0,0,0,24.26,19.46Z"/><path class="cls-1" d="M31.56,37a2.24,2.24,0,0,1-2.24-2.25V12.32a2.24,2.24,0,1,1,4.48,0V34.73A2.24,2.24,0,0,1,31.56,37Z"/><path class="cls-1" d="M31.56,37.18a2.45,2.45,0,0,1-2.44-2.45V12.32a2.44,2.44,0,1,1,4.88,0V34.73A2.45,2.45,0,0,1,31.56,37.18Zm0-26.91a2,2,0,0,0-2,2.05V34.73a2,2,0,1,0,4.08,0V12.32A2.05,2.05,0,0,0,31.56,10.27Z"/><path class="cls-1" d="M3.69,32.36V31.1a3.8,3.8,0,0,1-2.36-3.52V7.32A3.82,3.82,0,0,1,5.14,3.51h31a3.81,3.81,0,0,1,3.8,3.81V27.58a3.8,3.8,0,0,1-2.35,3.52v1.26a5,5,0,0,0,3.55-4.78V7.32a5,5,0,0,0-5-5H5.14a5,5,0,0,0-5,5V27.58A5,5,0,0,0,3.69,32.36Z"/><rect class="cls-2" width="41" height="40"/></g></g></svg>