<svg xmlns="http://www.w3.org/2000/svg" viewBox="0 0 40 41.8"><defs><style>.cls-1{fill:#f2f2f2;}.cls-1,.cls-2{fill-rule:evenodd;}.cls-2,.cls-3{fill:#bdbdbd;}.cls-4{fill:none;}</style></defs><title>Asset 1</title><g id="Layer_2" data-name="Layer 2"><g id="Layer_1-2" data-name="Layer 1"><path class="cls-1" d="M23.56,15.54,8.3,15.28v-.69l15.27.26Z"/><path class="cls-1" d="M20.37,20.9l-9.93-.26V20l9.93.26Z"/><path class="cls-2" d="M7.56,1.59A1.65,1.65,0,0,0,6,3.32V38.47A1.65,1.65,0,0,0,7.56,40.2H32.13a1.65,1.65,0,0,0,1.54-1.73V3.32a1.65,1.65,0,0,0-1.54-1.73ZM5.4,3.32A2.29,2.29,0,0,1,7.56.9H32.13a2.3,2.3,0,0,1,2.16,2.42V38.47a2.31,2.31,0,0,1-2.16,2.43H7.56A2.3,2.3,0,0,1,5.4,38.47Z"/><path class="cls-3" d="M19,37.26c-.54,0-.93-.54-1.17-.88a.6.6,0,0,0-1,0l0,.06a1.17,1.17,0,0,1-1,.42,1.18,1.18,0,0,1-.91-.53,1.06,1.06,0,0,0-.67-.47.54.54,0,0,0-.54.23,2.15,2.15,0,0,1-3,.6.89.89,0,0,1-.11-1.23A20.31,20.31,0,0,0,13,31a.83.83,0,0,0,0-.54c-.29-.65-.62-1-1-1h0c-.9,0-2,2-2.34,2.69l-.55-.31c.14-.32,1.45-3.08,2.89-3.08h0c.61,0,1.12.47,1.52,1.37a1.61,1.61,0,0,1,.07,1.06,20.79,20.79,0,0,1-2.46,4.66c-.08.11-.07.16,0,.25a1.59,1.59,0,0,0,2.14-.5,1.13,1.13,0,0,1,1.13-.48,1.68,1.68,0,0,1,1,.73.59.59,0,0,0,.46.27.58.58,0,0,0,.48-.22l0,0a1.2,1.2,0,0,1,1-.48,1.22,1.22,0,0,1,.93.52c.29.4.52.65.73.62s.65-.33,1.39-2l.55.3c-.69,1.6-1.26,2.35-1.87,2.43Z"/><path class="cls-3" d="M29.81,10.5l0,0,1.5-3.09L29.73,6.24,27.68,9.69A48.46,48.46,0,0,0,17.56,26.53a22.7,22.7,0,0,0-1.33,7v.3l.26,0c1-.17,4.21-3.85,4.84-4.58C26.09,24.2,29.1,13,29.61,11h0c.67.31,1.41.83,1.41,1.09,0,.93-2.79,8.26-3.48,8.92l.31.4c.79-.76,3.6-8.24,3.64-9.31C31.51,11.33,30.21,10.68,29.81,10.5ZM29.86,7l.81.6-1.32,2.71-1.14-.54ZM17.05,30.36l1.5,1.08a14.45,14.45,0,0,1-1.84,1.65A18.7,18.7,0,0,1,17.05,30.36Zm4-1.58c-.59.68-1.35,1.52-2.1,2.29l-1.75-1.25A28.67,28.67,0,0,1,18,26.68c.31-1,.72-2.05,1.25-3.26l1.29.76.22-.46L19.47,23c.12-.27.25-.55.39-.83l.78.58.26-.43-.81-.62a52.79,52.79,0,0,1,7.83-11.48l1.26.6C28.73,12.51,25.67,23.92,21,28.78Z"/><rect class="cls-4" width="40" height="41.8"/></g></g></svg>